HIERARCHY
ROOT Hips
{
    OFFSET 0.000000 0.000000 0.000000
    CHANNELS 6 Xposition Yposition Zposition Zrotation Yrotation Xrotation
    JOINT Chest
    {
        OFFSET 0.000000 1.634758 -0.000000
        CHANNELS 3 Zrotation Yrotation Xrotation
        JOINT Chest2
        {
            OFFSET 0.000000 2.197341 0.000000
            CHANNELS 3 Zrotation Yrotation Xrotation
            JOINT Neck
            {
                OFFSET 0.000000 0.961544 0.000000
                CHANNELS 3 Zrotation Yrotation Xrotation
                JOINT Head
                {
                    OFFSET 0.000000 0.632542 -0.032565
                    CHANNELS 3 Zrotation Yrotation Xrotation
                    End Site
                    {
                        OFFSET -0.000001 0.439502 2.922845
                    }
                }
            }
            JOINT LeftCollar
            {
                OFFSET 0.167536 0.778237 -0.168280
                CHANNELS 3 Zrotation Yrotation Xrotation
                JOINT LeftShoulder
                {
                    OFFSET 0.831514 -0.002900 0.006458
                    CHANNELS 3 Zrotation Yrotation Xrotation
                    JOINT LeftElbow
                    {
                        OFFSET 2.272872 -0.026639 0.059314
                        CHANNELS 3 Zrotation Yrotation Xrotation
                        JOINT LeftWrist
                        {
                            OFFSET 2.081982 -0.024402 0.054333
                            CHANNELS 3 Zrotation Yrotation Xrotation
                            JOINT LeftHandThumb1
                            {
                                OFFSET 0.218903 -0.128645 0.283837
                                CHANNELS 3 Zrotation Yrotation Xrotation
                                JOINT LeftHandThumb2
                                {
                                    OFFSET 0.137157 -0.025101 0.077902
                                    CHANNELS 3 Zrotation Yrotation Xrotation
                                    JOINT LeftHandThumb3
                                    {
                                        OFFSET 0.163695 -0.082113 0.000709
                                        CHANNELS 3 Zrotation Yrotation Xrotation
                                        End Site
                                        {
                                            OFFSET 0.235943 -0.101461 -0.076636
                                        }
                                    }
                                }
                            }
                            JOINT LeftHandFore1
                            {
                                OFFSET 0.767340 -0.016076 0.196678
                                CHANNELS 3 Zrotation Yrotation Xrotation
                                JOINT LeftHandFore2
                                {
                                    OFFSET 0.108637 -0.182362 -0.044017
                                    CHANNELS 3 Zrotation Yrotation Xrotation
                                    JOINT LeftHandFore3
                                    {
                                        OFFSET -0.047598 -0.120232 -0.006451
                                        CHANNELS 3 Zrotation Yrotation Xrotation
                                        End Site
                                        {
                                            OFFSET -0.186245 -0.046824 0.022070
                                        }
                                    }
                                }
                            }
                            JOINT LeftHandMiddle1
                            {
                                OFFSET 0.709887 -0.008320 0.018526
                                CHANNELS 3 Zrotation Yrotation Xrotation
                                JOINT LeftHandMiddle2
                                {
                                    OFFSET 0.121953 -0.209269 -0.037387
                                    CHANNELS 3 Zrotation Yrotation Xrotation
                                    JOINT LeftHandMiddle3
                                    {
                                        OFFSET -0.071764 -0.126973 -0.010531
                                        CHANNELS 3 Zrotation Yrotation Xrotation
                                        End Site
                                        {
                                            OFFSET -0.235528 -0.003392 0.012053
                                        }
                                    }
                                }
                            }
                            JOINT LeftHandRing1
                            {
                                OFFSET 0.743817 -0.005823 -0.153668
                                CHANNELS 3 Zrotation Yrotation Xrotation
                                JOINT LeftHandRing2
                                {
                                    OFFSET 0.161764 -0.305435 -0.072632
                                    CHANNELS 3 Zrotation Yrotation Xrotation
                                    JOINT LeftHandRing3
                                    {
                                        OFFSET -0.076086 -0.112682 -0.010918
                                        CHANNELS 3 Zrotation Yrotation Xrotation
                                        End Site
                                        {
                                            OFFSET -0.119436 0.012058 -0.003047
                                        }
                                    }
                                }
                            }
                            JOINT LeftHandLittle1
                            {
                                OFFSET 0.689408 -0.053302 -0.308304
                                CHANNELS 3 Zrotation Yrotation Xrotation
                                JOINT LeftHandLittle2
                                {
                                    OFFSET 0.063897 -0.177902 -0.048187
                                    CHANNELS 3 Zrotation Yrotation Xrotation
                                    JOINT LeftHandLittle3
                                    {
                                        OFFSET -0.045640 -0.107188 -0.030396
                                        CHANNELS 3 Zrotation Yrotation Xrotation
                                        End Site
                                        {
                                            OFFSET -0.183432 -0.038497 -0.034048
                                        }
                                    }
                                }
                            }
                        }
                    }
                }
            }
            JOINT RightCollar
            {
                OFFSET -0.167536 0.778237 -0.168280
                CHANNELS 3 Zrotation Yrotation Xrotation
                JOINT RightShoulder
                {
                    OFFSET -0.831514 -0.002900 0.006457
                    CHANNELS 3 Zrotation Yrotation Xrotation
                    JOINT RightElbow
                    {
                        OFFSET -2.272872 -0.026639 0.059313
                        CHANNELS 3 Zrotation Yrotation Xrotation
                        JOINT RightWrist
                        {
                            OFFSET -2.081982 -0.024402 0.054331
                            CHANNELS 3 Zrotation Yrotation Xrotation
                            JOINT RightHandThumb1
                            {
                                OFFSET -0.218911 -0.128571 0.283837
                                CHANNELS 3 Zrotation Yrotation Xrotation
                                JOINT RightHandThumb2
                                {
                                    OFFSET -0.137157 -0.025101 0.077902
                                    CHANNELS 3 Zrotation Yrotation Xrotation
                                    JOINT RightHandThumb3
                                    {
                                        OFFSET -0.157714 -0.092761 0.007808
                                        CHANNELS 3 Zrotation Yrotation Xrotation
                                        End Site
                                        {
                                            OFFSET -0.183504 -0.194818 -0.014453
                                        }
                                    }
                                }
                            }
                            JOINT RightHandFore1
                            {
                                OFFSET -0.767344 -0.015991 0.196679
                                CHANNELS 3 Zrotation Yrotation Xrotation
                                JOINT RightHandFore2
                                {
                                    OFFSET -0.108680 -0.182336 -0.044034
                                    CHANNELS 3 Zrotation Yrotation Xrotation
                                    JOINT RightHandFore3
                                    {
                                        OFFSET 0.045211 -0.121264 0.003606
                                        CHANNELS 3 Zrotation Yrotation Xrotation
                                        End Site
                                        {
                                            OFFSET 0.178852 -0.050053 0.053607
                                        }
                                    }
                                }
                            }
                            JOINT RightHandMiddle1
                            {
                                OFFSET -0.709887 -0.008302 0.018525
                                CHANNELS 3 Zrotation Yrotation Xrotation
                                JOINT RightHandMiddle2
                                {
                                    OFFSET -0.121931 -0.209278 -0.037380
                                    CHANNELS 3 Zrotation Yrotation Xrotation
                                    JOINT RightHandMiddle3
                                    {
                                        OFFSET 0.068701 -0.128745 0.009450
                                        CHANNELS 3 Zrotation Yrotation Xrotation
                                        End Site
                                        {
                                            OFFSET 0.228380 -0.007516 0.058451
                                        }
                                    }
                                }
                            }
                            JOINT RightHandRing1
                            {
                                OFFSET -0.743819 -0.005785 -0.153669
                                CHANNELS 3 Zrotation Yrotation Xrotation
                                JOINT RightHandRing2
                                {
                                    OFFSET -0.161785 -0.305422 -0.072637
                                    CHANNELS 3 Zrotation Yrotation Xrotation
                                    JOINT RightHandRing3
                                    {
                                        OFFSET 0.070874 -0.115738 0.013661
                                        CHANNELS 3 Zrotation Yrotation Xrotation
                                        End Site
                                        {
                                            OFFSET 0.107399 0.005016 0.053485
                                        }
                                    }
                                }
                            }
                            JOINT RightHandLittle1
                            {
                                OFFSET -0.689403 -0.053298 -0.308303
                                CHANNELS 3 Zrotation Yrotation Xrotation
                                JOINT RightHandLittle2
                                {
                                    OFFSET -0.063903 -0.177903 -0.048189
                                    CHANNELS 3 Zrotation Yrotation Xrotation
                                    JOINT RightHandLittle3
                                    {
                                        OFFSET 0.042249 -0.112582 -0.005988
                                        CHANNELS 3 Zrotation Yrotation Xrotation
                                        End Site
                                        {
                                            OFFSET 0.170191 -0.059569 0.061443
                                        }
                                    }
                                }
                            }
                        }
                    }
                }
            }
        }
    }
    JOINT LeftHip
    {
        OFFSET 0.685143 0.673822 -0.044491
        CHANNELS 3 Zrotation Yrotation Xrotation
        JOINT LeftKnee
        {
            OFFSET 0.085364 -3.750208 0.017676
            CHANNELS 3 Zrotation Yrotation Xrotation
            JOINT LeftAnkle
            {
                OFFSET 0.094583 -4.155206 0.019585
                CHANNELS 3 Zrotation Yrotation Xrotation
                JOINT LeftToe
                {
                    OFFSET -0.000000 -0.395925 0.621478
                    CHANNELS 3 Zrotation Yrotation Xrotation
                    End Site
                    {
                        OFFSET -0.000000 -0.077878 0.321152
                    }
                }
            }
        }
    }
    JOINT RightHip
    {
        OFFSET -0.685143 0.673822 -0.044492
        CHANNELS 3 Zrotation Yrotation Xrotation
        JOINT RightKnee
        {
            OFFSET -0.085364 -3.750208 0.017677
            CHANNELS 3 Zrotation Yrotation Xrotation
            JOINT RightAnkle
            {
                OFFSET -0.094583 -4.155206 0.019585
                CHANNELS 3 Zrotation Yrotation Xrotation
                JOINT RightToe
                {
                    OFFSET -0.000000 -0.395925 0.621478
                    CHANNELS 3 Zrotation Yrotation Xrotation
                    End Site
                    {
                        OFFSET -0.000000 -0.077878 0.321152
                    }
                }
            }
        }
    }
}
MOTION
Frames: 5
Frame Time: 0.033333
1.813779 8.576382 -6.586930 179.346481 6.653684 -160.418564 2.411707 -12.345735 -3.680821 -0.103241 1.930894 -0.641116 1.219179 -1.577467 -3.813056 -0.035270 0.684987 -5.033890 -2.650442 -1.152059 0.092057 -9.122598 2.169621 0.093398 -0.000002 0.000001 0.000002 -31.890730 11.635339 17.598038 0.000018 0.000009 -0.000012 3.174416 -7.997394 -1.380589 6.393555 -15.232927 -9.396078 37.123249 -17.338345 -11.224498 38.093708 -7.138301 5.441771 40.186924 -6.785953 6.686149 36.879047 -8.168903 -4.181671 42.070709 -4.296399 2.440375 41.972347 -5.048068 2.125459 40.695225 -6.360030 2.142149 43.029320 -2.930241 3.815479 45.950230 -3.523051 3.765765 59.712902 -0.708508 11.239124 26.992483 -1.013544 0.118871 46.144962 -4.156026 1.258889 3.311924 -1.927648 -0.111580 11.736233 -13.565368 0.367304 -0.097393 29.427040 -0.378212 29.595774 -15.460820 17.550842 0.000004 -0.000000 0.000005 -5.225539 3.870401 -5.833302 -13.680473 10.440918 -8.007564 -36.844887 17.282200 -11.131693 -37.384304 5.723660 8.652740 -39.535492 7.055494 7.942425 -36.614677 8.136507 -4.133534 -40.675758 6.860650 6.738300 -40.739098 6.103764 7.036220 -40.416882 6.319218 2.166057 -39.336983 12.607783 9.012124 -42.063210 13.357725 9.495065 -59.349945 0.658710 11.228078 -23.531292 11.312368 4.432049 -42.042313 17.932323 2.943455 5.885944 -2.577223 -29.287312 0.108441 0.520636 23.528996 -1.517201 3.233382 -12.310290 -0.000001 -0.000001 0.000006 4.075418 1.940344 -20.924488 -0.000000 0.000001 0.000000 -0.060214 0.315371 -2.795425 0.000001 0.000000 0.000003
1.845771 8.561644 -6.648427 179.839951 14.352763 -161.965210 0.733770 -9.144652 -0.437129 -0.629060 1.470431 -2.532612 1.348691 -0.600974 -4.574980 -0.088916 1.726546 -6.411313 -0.061603 -1.465457 0.001744 -0.402358 -0.332789 -0.000761 0.000000 -0.000000 0.000000 -51.768646 18.745695 19.189972 0.000020 0.000003 -0.000022 3.707434 -9.113028 -1.584708 7.525455 -17.455355 -10.659269 42.116253 -17.774466 -11.702679 43.001740 -8.421207 5.805277 45.540562 -8.017019 6.952213 41.949192 -8.259845 -4.531407 47.738770 -5.204557 2.370693 47.640347 -5.816124 1.869996 46.280476 -6.073300 1.595889 48.800869 -3.801860 3.598359 51.949326 -3.874572 3.503413 65.971466 -0.093639 11.476808 30.478621 -1.258048 -0.255048 52.299889 -4.125516 0.339122 0.267563 0.612476 -0.014330 1.143250 -7.590573 0.214463 -0.122225 32.485756 -0.426844 56.059975 -20.477615 19.398138 -0.000003 0.000010 -0.000014 -5.949755 4.402936 -6.734399 -15.775203 11.578500 -9.605434 -41.815704 17.714922 -11.602641 -42.260651 6.708900 9.417907 -44.720207 8.313854 8.795520 -41.664562 8.225502 -4.480047 -46.185223 7.868609 7.359630 -46.154438 7.230046 7.840807 -45.980915 6.030030 1.621257 -44.545391 14.358632 10.031512 -47.228176 15.701294 10.482253 -65.581192 0.041081 11.464307 -26.541708 12.754218 5.012043 -47.361019 20.812126 3.217268 6.706925 -2.664179 -33.729980 0.226382 0.734283 34.266884 -2.629407 5.386939 -15.722973 0.000000 -0.000000 -0.000005 5.085982 1.890818 -19.107761 -0.000000 0.000001 0.000000 0.592336 7.556961 -2.001673 0.000001 0.000001 0.000004
1.924978 8.537338 -6.755951 -179.693359 19.517647 -164.804428 -0.092027 -5.706213 3.141396 -0.250941 0.898017 -3.648578 1.566618 -0.136488 -4.840528 -0.076258 1.480846 -6.800532 2.056972 -2.570304 -0.038516 6.591044 -5.823953 -0.129109 0.000000 -0.000000 -0.000001 -66.731888 27.168795 21.396460 0.000000 -0.000003 -0.000014 4.127568 -9.970566 -1.747424 8.443047 -19.162855 -11.653290 45.969910 -18.104189 -12.068067 46.787388 -9.440494 6.018016 49.677128 -8.988838 7.060829 45.858376 -8.323969 -4.795827 52.112679 -5.919645 2.250304 52.018417 -6.396702 1.601894 50.590218 -5.817069 1.166593 53.251545 -4.491609 3.335703 56.578369 -4.117186 3.227066 70.812813 0.410539 11.662127 33.161053 -1.445966 -0.579499 57.029152 -4.003366 -0.442340 -2.680037 1.795667 0.033274 -9.315933 -4.439981 0.053624 -0.102956 30.154449 -0.389500 82.711098 -28.657814 17.447550 -0.000010 -0.000007 -0.000008 -6.509680 4.808033 -7.437317 -17.414806 12.401427 -10.889778 -45.652195 18.042078 -11.962454 -46.023220 7.499078 9.941352 -48.714355 9.323857 9.391242 -45.558147 8.288137 -4.742060 -50.438568 8.661476 7.775863 -50.325722 8.138451 8.406359 -50.274292 5.771983 1.193049 -48.566162 15.727881 10.741683 -51.201653 17.563108 11.150097 -70.401436 -0.465052 11.648490 -28.859800 13.866554 5.433534 -51.474430 23.056742 3.323262 7.118360 -2.783772 -39.750156 0.469049 1.001633 50.182796 -2.643588 5.024988 -21.392832 0.000001 0.000005 -0.000002 6.037269 1.813289 -15.508561 0.000000 -0.000000 0.000000 1.843548 12.084134 -1.641289 0.000001 0.000000 -0.000003
2.015057 8.523150 -6.845708 -179.271423 23.364889 -166.670197 -0.189732 -13.929205 4.458755 -1.042065 2.239966 -2.383622 1.570678 -0.106838 -5.059645 -0.215786 4.183891 -7.214734 4.846548 -4.191856 -0.199493 16.959753 7.537835 -0.157397 0.107934 -30.783175 -0.399387 -46.253551 19.114695 21.890083 0.000014 0.000004 -0.000005 4.402271 -10.521227 -1.854729 9.055316 -20.258511 -12.303562 48.451824 -18.313528 -12.301537 49.225643 -10.108329 6.122862 52.344810 -9.621562 7.085379 48.374249 -8.362649 -4.963413 54.930111 -6.384410 2.141613 54.840176 -6.762577 1.396962 53.372589 -5.607198 0.870746 56.117001 -4.940283 3.122220 59.559032 -4.257540 3.016242 73.950249 0.776029 11.772114 34.884872 -1.565860 -0.804910 60.063599 -3.876917 -0.974614 -4.614590 1.202463 0.171698 -15.884703 12.127031 -0.337137 -0.000000 -0.000003 0.000000 53.901192 -20.247421 16.318233 -0.000005 -0.000005 -0.000006 -6.870747 5.066185 -7.893421 -18.480968 12.905222 -11.739905 -48.122990 18.249802 -12.192352 -48.446831 8.019707 10.246661 -51.284531 9.990139 9.744835 -48.063938 8.325871 -4.908118 -53.179298 9.176869 8.014205 -53.009357 8.739603 8.743847 -53.046108 5.561062 0.897918 -51.158264 16.615446 11.162861 -53.758392 18.783319 11.535056 -73.525116 -0.831532 11.757825 -30.350908 14.582172 5.692931 -54.132755 24.508955 3.340888 5.674067 -2.871336 -45.005230 0.706559 1.159061 62.729092 -0.888994 5.654719 -25.596943 0.000003 0.000007 -0.000008 6.840604 1.742076 -12.798682 -0.000000 0.000002 0.000000 4.368645 14.937817 -0.974016 -0.000000 -0.000002 0.000005
2.107807 8.511376 -6.940463 -178.912079 27.111025 -168.453812 0.045381 -17.594231 5.621788 -1.453820 2.848449 -1.863886 1.627516 0.285781 -5.034348 -0.317849 6.150046 -7.184243 7.334198 -5.969214 -0.380671 26.062569 0.096897 -0.756648 0.058106 -23.312677 -0.289015 -30.025543 15.555971 23.208651 0.000009 -0.000003 -0.000018 4.500305 -10.715831 -1.893202 9.276180 -20.645531 -12.535805 49.330345 -18.387081 -12.383834 50.088928 -10.346619 6.153841 53.289978 -9.846426 7.085461 49.264465 -8.375856 -5.022221 55.927608 -6.549444 2.097248 55.839485 -6.890295 1.318429 54.375488 -5.457835 0.725406 57.131256 -5.099538 3.038303 60.613976 -4.303928 2.935614 75.096916 0.976632 11.785166 35.494350 -1.608002 -0.887784 61.135399 -3.822945 -1.167980 -6.105607 1.262934 0.294039 -21.804655 5.741099 -0.624992 -0.035662 18.573914 -0.225425 31.022873 -12.299356 19.818188 -0.000003 -0.000010 0.000000 -6.998655 5.157043 -8.055513 -18.860231 13.078549 -12.045076 -48.997578 18.322775 -12.273372 -49.304932 8.205953 10.348671 -52.194057 10.228702 9.864226 -48.950596 8.338749 -4.966393 -54.149872 9.359948 8.092943 -53.958908 8.955191 8.858151 -54.045277 5.411518 0.752933 -52.076584 16.930410 11.305047 -54.663460 19.218819 11.662621 -74.666649 -1.031984 11.770870 -30.878462 14.835283 5.782487 -55.076122 25.023829 3.337341 2.411464 -2.894243 -46.619804 0.820544 1.211037 68.236244 2.128941 7.313359 -26.884123 0.000002 0.000007 -0.000001 7.444969 1.665800 -10.071506 -0.000000 0.000002 0.000000 7.843093 16.994017 0.170824 -0.000001 -0.000007 0.000007
